<?xml version="1.0" standalone="no"?>
<!DOCTYPE svg PUBLIC "-//W3C//DTD SVG 20010904//EN"
 "http://www.w3.org/TR/2001/REC-SVG-20010904/DTD/svg10.dtd">
<svg version="1.0" xmlns="http://www.w3.org/2000/svg"
 width="512.000000pt" height="512.000000pt" viewBox="0 0 512.000000 512.000000"
 preserveAspectRatio="xMidYMid meet">
<metadata>
Created by potrace 1.11, written by Peter Selinger 2001-2013
</metadata>
<g transform="translate(0.000000,512.000000) scale(0.100000,-0.100000)"
fill="#000000" stroke="none">
<path d="M2497 4864 c-1 -1 -49 -5 -107 -8 -133 -9 -146 -11 -296 -41 -206
-42 -525 -158 -644 -236 -14 -9 -61 -37 -105 -64 -189 -113 -422 -317 -570
-499 -229 -283 -400 -642 -469 -986 -41 -205 -47 -271 -47 -475 -1 -141 3
-188 22 -325 68 -481 287 -926 628 -1275 143 -147 272 -251 434 -351 112 -70
335 -182 372 -188 5 -1 15 -4 20 -8 26 -16 277 -89 350 -102 17 -3 41 -8 55
-11 217 -45 495 -50 755 -15 223 31 538 131 713 226 67 37 205 117 217 126 6
4 55 41 110 81 324 239 553 526 736 922 72 158 155 460 174 635 4 36 9 79 11
95 5 42 5 341 0 392 -30 301 -103 559 -231 818 -211 427 -533 767 -950 1001
-211 119 -521 226 -752 260 -26 3 -56 8 -66 10 -48 8 -353 24 -360 18z m355
-800 c161 -92 304 -174 318 -183 14 -9 50 -29 80 -45 30 -16 62 -35 71 -42 8
-8 18 -14 21 -14 3 0 93 -50 199 -111 107 -61 219 -125 249 -142 30 -16 71
-40 90 -51 19 -12 47 -28 62 -35 l26 -14 1 -148 2 -149 -96 0 -95 0 0 -27 c-3
-188 0 -1236 3 -1239 2 -3 46 -5 96 -5 l92 0 -2 -82 -2 -82 80 0 81 0 -1 -117
0 -118 -1564 0 -1563 0 -1 28 c-1 26 -1 145 0 190 1 21 5 22 80 22 l79 0 -1
75 c0 41 3 78 7 82 4 4 46 8 94 8 l87 0 1 632 0 632 -95 3 -95 3 1 143 c0 79
4 147 9 152 5 4 34 21 64 38 30 16 78 43 105 59 28 16 57 32 65 36 8 4 271
155 585 336 314 181 571 330 572 330 1 1 134 -74 295 -165z"/>
<path d="M2482 3795 c-35 -20 -91 -51 -124 -70 -32 -19 -60 -35 -62 -35 -6 0
-469 -260 -465 -261 18 -5 1456 -2 1453 3 -2 3 -44 28 -92 54 -48 26 -100 55
-117 64 -16 9 -70 38 -120 65 -49 27 -107 59 -127 72 -21 13 -40 23 -42 23 -3
0 -54 27 -113 60 -59 33 -112 60 -118 60 -5 0 -39 -16 -73 -35z"/>
<path d="M1604 2415 l1 -550 233 0 232 -1 -2 551 -3 550 -231 0 -231 0 1 -550z"/>
<path d="M2326 2960 c-1 -3 -2 -250 -2 -550 l1 -545 233 0 232 -1 -2 550 -3
551 -228 0 c-126 0 -230 -2 -231 -5z"/>
<path d="M3054 2961 c-2 -2 -4 -250 -4 -550 l0 -547 233 1 232 0 0 550 0 550
-228 0 c-126 0 -230 -2 -233 -4z"/>
</g>
</svg>
